<mxfile host="app.diagrams.net" modified="2020-08-27T01:30:07.638Z" agent="5.0 (X11)" etag="tykvfpvguG8V5RkpPMhy" version="13.6.5" type="github">
  <diagram id="BGmyGuH2eSJRdZfoYK_6" name="第 1 页">
    <mxGraphModel dx="1326" dy="656" grid="1" gridSize="10" guides="1" tooltips="1" connect="1" arrows="1" fold="1" page="1" pageScale="1" pageWidth="1600" pageHeight="1200" math="0" shadow="0">
      <root>
        <mxCell id="0" />
        <mxCell id="1" parent="0" />
        <mxCell id="2rCm4mX-LXQZp0fqyjS6-2" value="&lt;b&gt;&lt;font style=&quot;font-size: 20px&quot;&gt;Card title&lt;/font&gt;&lt;/b&gt;&lt;br&gt;&lt;br&gt;This is a wider card with supporting text below as a natural lead-in to additional content. This content is a little bit longer.&lt;br&gt;&lt;br&gt;&lt;font style=&quot;font-size: 12px&quot; color=&quot;#999999&quot;&gt;Last udated 3 mind ago&lt;/font&gt;" style="html=1;shadow=0;dashed=0;shape=mxgraph.bootstrap.rrect;rSize=5;strokeColor=#DFDFDF;html=1;whiteSpace=wrap;fillColor=#ffffff;fontColor=#000000;verticalAlign=top;align=left;spacing=20;fontSize=14;spacingLeft=170;" vertex="1" parent="1">
          <mxGeometry x="80" y="80" width="480" height="240" as="geometry" />
        </mxCell>
        <mxCell id="2rCm4mX-LXQZp0fqyjS6-3" value="Image" style="html=1;shadow=0;dashed=0;shape=mxgraph.bootstrap.leftButton;rSize=5;perimeter=none;whiteSpace=wrap;fillColor=#868E96;strokeColor=#DFDFDF;fontColor=#DEE2E6;resizeWidth=1;fontSize=18;" vertex="1" parent="2rCm4mX-LXQZp0fqyjS6-2">
          <mxGeometry width="170" height="240" relative="1" as="geometry" />
        </mxCell>
      </root>
    </mxGraphModel>
  </diagram>
</mxfile>
